<?xml version="1.0" standalone="no"?><!-- Generator: Gravit.io --><svg xmlns="http://www.w3.org/2000/svg" xmlns:xlink="http://www.w3.org/1999/xlink" style="isolation:isolate" viewBox="-0.11012500000000358 0 64.11012500000001 64.01700000000001" width="64.11012500000001" height="64.01700000000001"><path d=" M -0.11012500000000358 55.008500000000005 C -0.11012500000000358 50.036573542330004 14.228594359999985 46 31.88987499999999 46 C 49.55115563999999 46 63.88987499999999 50.03657354233 63.889874999999996 55.008500000000005 C 63.889875 59.980426457670006 49.551155640000005 64.01700000000001 31.889875000000007 64.01700000000001 C 14.228594360000002 64.01700000000001 -0.11012500000000358 59.98042645767001 -0.11012500000000358 55.008500000000005 Z " fill="rgb(156,218,240)"/><path d=" M 0 30.000000000000004 C 0 13.442549399999997 14.338719359999988 3.552713678800501e-15 31.999999999999993 0 C 49.66128064 0 64 13.44254939999999 64 29.999999999999993 C 64 46.557450599999996 49.66128064000001 59.99999999999999 32.00000000000001 60 C 14.338719360000006 60.00000000000001 3.552713678800501e-15 46.55745060000001 0 30.000000000000004 Z " fill="rgb(32,31,31)"/><path d=" M 48 28.323569071580582 C 48 21.854569208909684 44.15299987792969 16.29656864433449 38.630001068115234 13.77456928520363 C 36.90399932861328 13.050569308091813 36 14.369568598558121 36 15.440569651414567 L 36 23.940569651414567 C 36 24.7685687664048 36.672000885009766 25.323569071580582 37.5 25.323569071580582 L 40.56100082397461 25.323569071580582 C 42.03200149536133 25.323569071580582 42.444000244140625 26.450569880296403 41.474998474121094 27.685568583299332 L 33.762001037597656 37.51457096367042 C 32.792999267578125 38.74956775932472 31.207000732421875 38.74956775932472 30.238000869750977 37.51457096367042 L 22.524999618530273 27.685568583299332 C 21.555999755859375 26.450569880296403 21.966999053955078 25.323569071580582 23.43899917602539 25.323569071580582 L 26.5 25.323569071580582 C 27.327999114990234 25.323569071580582 28 24.7685687664048 28 23.940569651414567 L 28 15.440569651414567 C 28 14.335568201829606 26.496000289916992 13.298569453050309 25.246999740600586 13.830569041063004 C 25.243999481201172 13.831569445420914 25.242000579833984 13.8285691860215 25.23900032043457 13.829568636705094 C 20.92799949645996 15.84956814079445 17.666000366210938 19.734568369676285 16.490999221801758 24.449568522264176 C 11.687000274658203 25.177569163133317 8 29.31456829338234 8 34.32356907158058 C 8 39.84656788139503 12.47700023651123 44.32356907158058 18 44.32356907158058 L 48 44.32356907158058 C 52.417999267578125 44.32356907158058 56 40.741568339158704 56 36.32356907158058 C 56 31.905569804002457 52.417999267578125 28.323569071580582 48 28.323569071580582 Z " fill="rgb(196,155,134)"/><path d=" M 48 26.450000079837498 C 48 19.981000079837496 44.153 14.423000079837497 38.63 11.901000079837498 C 36.904 11.177000079837498 36 12.496000079837497 36 13.567000079837499 L 36 22.0670000798375 C 36 22.895000079837498 36.672 23.450000079837498 37.5 23.450000079837498 L 40.561 23.450000079837498 C 42.032 23.450000079837498 42.444 24.577000079837497 41.475 25.8120000798375 L 33.762 35.6410000798375 C 32.793 36.876000079837496 31.207 36.876000079837496 30.238 35.6410000798375 L 22.525 25.8120000798375 C 21.556 24.577000079837497 21.967 23.450000079837498 23.439 23.450000079837498 L 26.5 23.450000079837498 C 27.328 23.450000079837498 28 22.895000079837498 28 22.0670000798375 L 28 13.567000079837499 C 28 12.462000079837498 26.496 11.425000079837499 25.247 11.9570000798375 C 25.244 11.958000079837499 25.242 11.955000079837498 25.239 11.9560000798375 C 20.928 13.976000079837501 17.666 17.8610000798375 16.491 22.5760000798375 C 11.687 23.304000079837497 8 27.441000079837497 8 32.450000079837494 C 8 37.97300007983749 12.477 42.450000079837494 18 42.450000079837494 L 48 42.450000079837494 C 52.418 42.450000079837494 56 38.8680000798375 56 34.450000079837494 C 56 30.0320000798375 52.418 26.450000079837498 48 26.450000079837498 Z " fill="rgb(244,202,177)"/><path d=" M 42.25 34.32356907158058 C 42.25 31.837605842745578 44.378403655 29.81931907158058 47 29.81931907158058 C 49.621596345 29.81931907158058 51.75 31.837605842745578 51.75 34.32356907158058 C 51.75 36.809532300415576 49.621596345 38.82781907158058 47 38.82781907158058 C 44.378403655 38.82781907158058 42.25 36.80953230041558 42.25 34.32356907158058 Z " fill="rgb(255,255,255)"/><path d=" M 42.92857142857143 34.32356907158058 C 42.92857142857143 32.19274344686487 44.75291741857143 30.462783357294864 47 30.462783357294864 C 49.24708258142857 30.462783357294864 51.07142857142857 32.19274344686486 51.07142857142857 34.32356907158058 C 51.07142857142857 36.45439469629629 49.24708258142857 38.1843547858663 47 38.1843547858663 C 44.75291741857143 38.1843547858663 42.92857142857143 36.4543946962963 42.92857142857143 34.32356907158058 Z " fill="rgb(172,92,81)"/><path d=" M 44.96428571428573 33.154394464437715 C 44.96428571428573 32.444119256199144 45.572401044285726 31.867465893009143 46.321428571428584 31.86746589300914 C 47.07045609857144 31.86746589300914 47.67857142857144 32.444119256199144 47.67857142857144 33.154394464437715 C 47.67857142857144 33.864669672676285 47.07045609857144 34.44132303586629 46.321428571428584 34.44132303586629 C 45.572401044285726 34.44132303586629 44.96428571428573 33.864669672676285 44.96428571428573 33.154394464437715 Z " fill="rgb(235,235,235)"/><path d=" M 12.986500000000001 34.450000079837494 C 12.986500000000001 31.964036851002493 15.00489879241 29.945750079837495 17.491 29.945750079837495 C 19.97710120759 29.945750079837495 21.995499999999996 31.964036851002493 21.9955 34.450000079837494 C 21.9955 36.93596330867249 19.97710120759 38.95425007983749 17.491 38.95425007983749 C 15.004898792410001 38.95425007983749 12.986500000000003 36.9359633086725 12.986500000000001 34.450000079837494 Z " fill="rgb(255,255,255)"/><path d=" M 13.629999999999999 34.450000079837494 C 13.629999999999999 32.31917445512178 15.360056107779998 30.58921436555178 17.491 30.58921436555178 C 19.62194389222 30.58921436555178 21.352 32.319174455121775 21.352 34.450000079837494 C 21.352 36.580825704553206 19.621943892220003 38.31078579412321 17.491 38.31078579412321 C 15.36005610778 38.31078579412321 13.629999999999999 36.58082570455321 13.629999999999999 34.450000079837494 Z " fill="rgb(172,92,81)"/><path d=" M 16.85908400154114 33.28082547269463 C 16.85908400154114 32.57055026445606 17.43576937080114 31.99389690126606 18.14608400154114 31.993896901266055 C 18.85639863228114 31.993896901266055 19.43308400154114 32.57055026445606 19.43308400154114 33.28082547269463 C 19.43308400154114 33.9911006809332 18.85639863228114 34.567754044123205 18.14608400154114 34.567754044123205 C 17.43576937080114 34.567754044123205 16.85908400154114 33.9911006809332 16.85908400154114 33.28082547269463 Z " fill="rgb(235,235,235)"/></svg>