<?xml version="1.0" standalone="no"?><!-- Generator: Gravit.io --><svg xmlns="http://www.w3.org/2000/svg" xmlns:xlink="http://www.w3.org/1999/xlink" style="isolation:isolate" viewBox="-0.11012500000000358 0 64.11012500000001 64.01700000000001" width="64.11012500000001" height="64.01700000000001"><path d=" M -0.11012500000000358 55.008500000000005 C -0.11012500000000358 50.036573542330004 14.228594359999985 46 31.88987499999999 46 C 49.55115563999999 46 63.88987499999999 50.03657354233 63.889874999999996 55.008500000000005 C 63.889875 59.980426457670006 49.551155640000005 64.01700000000001 31.889875000000007 64.01700000000001 C 14.228594360000002 64.01700000000001 -0.11012500000000003 59.98042645767001 -0.11012500000000358 55.008500000000005 Z " fill="rgb(156,218,240)"/><clipPath id="_clipPath_juXDhZEE8qWY6tVXILnowywK3FgFneXn"><path d=" M -0.11012500000000358 55.008500000000005 C -0.11012500000000358 50.036573542330004 14.228594359999985 46 31.88987499999999 46 C 49.55115563999999 46 63.88987499999999 50.03657354233 63.889874999999996 55.008500000000005 C 63.889875 59.980426457670006 49.551155640000005 64.01700000000001 31.889875000000007 64.01700000000001 C 14.228594360000002 64.01700000000001 -0.11012500000000003 59.98042645767001 -0.11012500000000358 55.008500000000005 Z " fill="rgb(156,218,240)"/></clipPath><g clip-path="url(#_clipPath_juXDhZEE8qWY6tVXILnowywK3FgFneXn)"><path d=" M 7.9999999999999964 69.5 C 7.9999999999999964 62.04914723 18.75403951999999 56 31.999999999999996 56 C 45.24596048 56 56 62.049147229999996 56 69.5 C 56.000000000000014 76.95085277 45.24596048000001 83 32.00000000000001 83 C 18.754039520000003 83 8 76.95085277 7.9999999999999964 69.5 Z " fill="rgb(124,186,230)"/></g><path d=" M 0 30.000000000000004 C 0 13.442549399999997 14.338719359999988 3.552713678800501e-15 31.999999999999993 0 C 49.66128064 0 64 13.44254939999999 64 29.999999999999993 C 64 46.557450599999996 49.66128064000001 59.99999999999999 32.00000000000001 60 C 14.338719360000006 60.00000000000001 3.552713678800501e-15 46.55745060000001 0 30.000000000000004 Z " fill="rgb(32,31,31)"/><path d=" M 48 28.323569071580582 C 48 21.854569208909684 44.15299987792969 16.29656864433449 38.630001068115234 13.77456928520363 C 36.90399932861328 13.050569308091813 36 14.369568598558121 36 15.440569651414567 L 36 23.940569651414567 C 36 24.7685687664048 36.672000885009766 25.323569071580582 37.5 25.323569071580582 L 40.56100082397461 25.323569071580582 C 42.03200149536133 25.323569071580582 42.444000244140625 26.450569880296403 41.474998474121094 27.685568583299332 L 33.762001037597656 37.51457096367042 C 32.792999267578125 38.74956775932472 31.207000732421875 38.74956775932472 30.238000869750977 37.51457096367042 L 22.524999618530273 27.685568583299332 C 21.555999755859375 26.450569880296403 21.966999053955078 25.323569071580582 23.43899917602539 25.323569071580582 L 26.5 25.323569071580582 C 27.327999114990234 25.323569071580582 28 24.7685687664048 28 23.940569651414567 L 28 15.440569651414567 C 28 14.335568201829606 26.496000289916992 13.298569453050309 25.246999740600586 13.830569041063004 C 25.243999481201172 13.831569445420914 25.242000579833984 13.8285691860215 25.23900032043457 13.829568636705094 C 20.92799949645996 15.84956814079445 17.666000366210938 19.734568369676285 16.490999221801758 24.449568522264176 C 11.687000274658203 25.177569163133317 8 29.31456829338234 8 34.32356907158058 C 8 39.84656788139503 12.47700023651123 44.32356907158058 18 44.32356907158058 L 48 44.32356907158058 C 52.417999267578125 44.32356907158058 56 40.741568339158704 56 36.32356907158058 C 56 31.905569804002457 52.417999267578125 28.323569071580582 48 28.323569071580582 Z " fill="rgb(196,155,134)"/><path d=" M 48 26.450000079837498 C 48 19.9810002171666 44.15299987792969 14.422999652591404 38.630001068115234 11.901000293460545 C 36.90399932861328 11.177000316348728 36 12.495999606815037 36 13.567000659671482 L 36 22.067000659671482 C 36 22.894999774661716 36.672000885009766 23.450000079837498 37.5 23.450000079837498 L 40.56100082397461 23.450000079837498 C 42.03200149536133 23.450000079837498 42.444000244140625 24.577000888553318 41.474998474121094 25.811999591556248 L 33.762001037597656 35.64100197192734 C 32.792999267578125 36.875998767581635 31.207000732421875 36.875998767581635 30.238000869750977 35.64100197192734 L 22.524999618530273 25.811999591556248 C 21.555999755859375 24.577000888553318 21.966999053955078 23.450000079837498 23.43899917602539 23.450000079837498 L 26.5 23.450000079837498 C 27.327999114990234 23.450000079837498 28 22.894999774661716 28 22.067000659671482 L 28 13.567000659671482 C 28 12.461999210086521 26.496000289916992 11.425000461307224 25.246999740600586 11.95700004931992 C 25.243999481201172 11.95800045367783 25.242000579833984 11.955000194278416 25.23900032043457 11.95599964496201 C 20.92799949645996 13.975999149051365 17.666000366210938 17.8609993779332 16.490999221801758 22.57599953052109 C 11.687000274658203 23.304000171390232 8 27.440999301639255 8 32.450000079837494 C 8 37.97299888965195 12.47700023651123 42.450000079837494 18 42.450000079837494 L 48 42.450000079837494 C 52.417999267578125 42.450000079837494 56 38.86799934741562 56 34.450000079837494 C 56 30.032000812259373 52.417999267578125 26.450000079837498 48 26.450000079837498 Z " fill="rgb(244,202,177)"/><path d=" M 41 33.32356907158058 C 41 30.56399397158058 43.2404249 28.32356907158058 46 28.32356907158058 C 48.7595751 28.32356907158058 51 30.563993971580576 51 33.32356907158058 C 51 36.08314417158058 48.7595751 38.32356907158058 46 38.32356907158058 C 43.2404249 38.32356907158058 41 36.08314417158058 41 33.32356907158058 Z " fill="rgb(255,255,255)"/><path d=" M 41.9 33.661980026890944 C 41.9 31.537107199890944 43.62832777999999 29.811980026890943 45.75714285714285 29.811980026890943 C 47.885957934285706 29.811980026890943 49.61428571428571 31.537107199890944 49.61428571428571 33.661980026890944 C 49.614285714285714 35.78685285389094 47.88595793428571 37.511980026890946 45.75714285714285 37.511980026890946 C 43.62832778 37.511980026890946 41.9 35.78685285389095 41.9 33.661980026890944 Z " fill="rgb(172,92,81)"/><path d=" M 43.957142857142856 32.30947523764456 C 43.957142857142856 31.58675618567046 44.53325211714285 31 45.24285714285714 31 C 45.95246216857143 31 46.528571428571425 31.58675618567046 46.528571428571425 32.30947523764456 C 46.528571428571425 33.032194289618666 45.95246216857143 33.618950475289125 45.24285714285714 33.618950475289125 C 44.53325211714286 33.618950475289125 43.957142857142856 33.032194289618666 43.957142857142856 32.30947523764456 Z " fill="rgb(235,235,235)"/><path d=" M 13 32.450000079837494 C 13 29.703050013888237 15.242441282409999 27.472875039918748 18.0045 27.472875039918748 C 20.766558717589998 27.472875039918748 23.009 29.703050013888237 23.009 32.450000079837494 C 23.009 35.19695014578675 20.76655871759 37.42712511975624 18.0045 37.42712511975624 C 15.242441282410002 37.42712511975624 13.000000000000002 35.19695014578675 13 32.450000079837494 Z " fill="rgb(255,255,255)"/><path d=" M 14.3 32.92287511975624 C 14.3 30.792049495040526 16.03005610778 29.062089405470527 18.161 29.062089405470527 C 20.29194389222 29.062089405470527 22.022000000000002 30.792049495040526 22.022000000000002 32.92287511975624 C 22.022000000000002 35.05370074447195 20.291943892220004 36.78366083404196 18.161 36.78366083404196 C 16.030056107780002 36.78366083404196 14.3 35.05370074447196 14.3 32.92287511975624 Z " fill="rgb(172,92,81)"/><path d=" M 17.356500000000004 31.48692857142857 C 17.356500000000004 30.776653363189997 17.933185369260002 30.2 18.643500000000003 30.199999999999996 C 19.353814630740004 30.199999999999996 19.930500000000002 30.776653363189997 19.930500000000002 31.48692857142857 C 19.930500000000002 32.19720377966714 19.353814630740004 32.773857142857146 18.643500000000003 32.773857142857146 C 17.933185369260002 32.773857142857146 17.356500000000004 32.19720377966714 17.356500000000004 31.48692857142857 Z " fill="rgb(235,235,235)"/></svg>